<svg viewBox="0 0 596.2184799999999 227.98367346938778" xmlns="http://www.w3.org/2000/svg" data-name="Layer 1" id="Layer_1" style="max-height: 500px" width="596.2184799999999" height="227.98367346938778">
  <g>
    <g>
      <path style="fill: #414042;" d="M215.09,132.74c.84.89,1.85,1.59,3.03,2.11s2.44.78,3.77.78,2.59-.26,3.77-.78c1.18-.52,2.2-1.22,3.03-2.11s1.5-1.91,2-3.07c.49-1.16.74-2.38.74-3.66s-.25-2.58-.74-3.74c-.49-1.16-1.16-2.17-2-3.03-.84-.86-1.85-1.54-3.03-2.03-1.18-.49-2.44-.74-3.77-.74s-2.59.25-3.77.74c-1.18.49-2.2,1.17-3.03,2.03-.84.86-1.51,1.87-2,3.03s-.74,2.4-.74,3.74.25,2.51.74,3.66c.49,1.16,1.16,2.18,2,3.07Z"/>
      <path style="fill: #414042;" d="M308.58,193.07c-.86-.86-1.88-1.54-3.03-2.04-1.16-.49-2.38-.74-3.66-.74-1.38,0-2.65.25-3.81.74-1.16.49-2.17,1.17-3.03,2.04-.86.86-1.54,1.87-2.03,3.03-.49,1.16-.74,2.43-.74,3.81,0,1.28.25,2.5.74,3.66.49,1.16,1.17,2.17,2.03,3.04.86.86,1.87,1.55,3.03,2.07,1.16.52,2.43.78,3.81.78,1.28,0,2.5-.26,3.66-.78,1.16-.52,2.17-1.21,3.03-2.07.86-.86,1.55-1.88,2.07-3.04s.78-2.38.78-3.66c0-1.38-.26-2.65-.78-3.81-.52-1.16-1.21-2.17-2.07-3.03Z"/>
      <path style="fill: #414042;" d="M330.04,193.07c-.86-.86-1.87-1.54-3.03-2.04-1.16-.49-2.4-.74-3.74-.74s-2.58.25-3.74.74c-1.16.49-2.17,1.17-3.03,2.04-.86.86-1.54,1.87-2.03,3.03-.49,1.16-.74,2.43-.74,3.81,0,1.28.25,2.5.74,3.66.49,1.16,1.17,2.17,2.03,3.04s1.87,1.55,3.03,2.07c1.16.52,2.4.78,3.74.78s2.58-.26,3.74-.78c1.16-.52,2.17-1.21,3.03-2.07.86-.86,1.54-1.88,2.03-3.04.49-1.16.74-2.38.74-3.66,0-1.38-.25-2.65-.74-3.81-.49-1.16-1.17-2.17-2.03-3.03Z"/>
      <path style="fill: #414042;" d="M355.29,127.38v-.37l-.07,35.61h-32.91v-45.23h-9.1c-1.63.15-3.03.55-4.22,1.22-1.19.67-2.16,1.52-2.92,2.55-.77,1.04-1.32,2.23-1.67,3.59-.35,1.36-.49,2.8-.44,4.33v33.54h-39.12v-45.23h-9.1c-1.58.15-2.95.55-4.11,1.22-1.16.67-2.12,1.52-2.89,2.55-.77,1.04-1.34,2.23-1.74,3.59-.4,1.36-.59,2.8-.59,4.33v33.54h-49.85v9.4c-.35,6.12,2.22,9.15,7.7,9.1h194.46c1.92-.15,3.69-.51,5.29-1.07,1.6-.57,2.96-1.37,4.07-2.4,1.11-1.04,1.97-2.32,2.59-3.85.62-1.53.93-3.35.93-5.48v-50.93h-47.06c-5.52.39-8.61,3.72-9.25,9.99ZM373.71,135.6l19.31-.07v27.1h-19.31v-27.03Z"/>
      <path style="fill: #414042;" d="M587.31,127.31c-.84-6.26-4.02-9.57-9.55-9.92h-32.5v-19.98h-9.32c-2.37.1-4.37.9-5.99,2.4-1.63,1.5-2.64,3.61-3.03,6.33v11.25h-30.42c-5.48.39-8.61,3.72-9.4,9.99v6.07c0,2.22-.01,4.43-.04,6.62-.02,2.2-.04,14.51-.04,16.63v5.92h-41.97v-69.78h-9.1c-5.48.35-8.61,3.65-9.4,9.92,0,6.71.01,13.3.04,19.76.02,6.46.04,12.93.04,19.39s.01,12.87.04,19.35c.02,6.49.04,13.11.04,19.87h27.53-1.94,113.53c11.56,0,13.04-.3,14.47-.89s2.68-1.39,3.74-2.4c1.06-1.01,1.9-2.22,2.52-3.63.62-1.41.9-2.92.85-4.55l-.07-42.34ZM526.83,162.62h-21.25v-27.1h21.25v27.1ZM568.66,162.62h-23.25v-27.1h23.25v27.1Z"/>
    </g>
    <g>
      <path style="fill: #414042;" d="M611.93,177.26c0,1.42-.44,2.58-1.34,3.45-.9.88-2.09,1.32-3.55,1.32s-2.65-.44-3.55-1.32c-.9-.87-1.34-2.03-1.34-3.45s.44-2.58,1.34-3.46c.9-.87,2.09-1.31,3.55-1.31s2.64.44,3.55,1.31c.9.88,1.34,2.04,1.34,3.46Z"/>
      <path style="fill: #414042;" d="M685.21,181.24h-6.52v-13.43c-2.54,4.61-6.17,8.23-10.88,10.88-4.72,2.65-9.85,3.97-15.41,3.97-6.11,0-11.58-1.42-16.41-4.26-4.82-2.84-8.62-6.76-11.4-11.76-2.78-4.99-4.16-10.76-4.16-17.3s1.38-12.31,4.16-17.31c2.78-5,6.58-8.92,11.4-11.76,4.83-2.84,10.3-4.26,16.41-4.26,5.56,0,10.69,1.33,15.41,3.97,4.72,2.65,8.34,6.28,10.88,10.88v-13.43h6.52v63.82ZM652.98,176.58c5,0,9.42-1.16,13.27-3.49,3.86-2.32,6.88-5.54,9.08-9.65,2.2-4.11,3.3-8.82,3.3-14.11s-1.1-10-3.3-14.09c-2.2-4.09-5.22-7.31-9.08-9.65-3.85-2.35-8.27-3.52-13.27-3.52s-9.42,1.17-13.27,3.52c-3.86,2.35-6.88,5.56-9.08,9.65-2.2,4.09-3.3,8.79-3.3,14.09s1.1,10,3.3,14.11c2.2,4.11,5.22,7.34,9.08,9.65,3.85,2.33,8.27,3.49,13.27,3.49Z"/>
      <path style="fill: #414042;" d="M713.18,97.98c0,1.42-.46,2.57-1.39,3.46-.93.88-2.12,1.32-3.58,1.32s-2.66-.44-3.59-1.32c-.93-.89-1.39-2.04-1.39-3.46s.46-2.57,1.39-3.46c.93-.89,2.12-1.32,3.59-1.32s2.65.43,3.58,1.32c.93.89,1.39,2.04,1.39,3.46ZM711.57,181.24h-6.72v-63.82h6.72v63.82Z"/>
    </g>
  </g>
  <path style="fill: #00aeef;" d="M91.43,0h-30.4v30.56C27.32,30.56,0,57.88,0,91.58v91.36h30.56v-92.04c0-16.46,13.34-29.8,29.79-29.8h.68v30.4h30.4V30.56h.68c16.46,0,29.8,13.34,29.8,29.8v92.19h-30.47v-30.47h-30.4v60.87h91.43V61.03C152.46,27.32,125.14,0,91.43,0Z"/>
</svg>